<?xml version="1.0" encoding="UTF-8"?>
<svg width="384px" height="381px" viewBox="0 0 384 381" version="1.1" xmlns="http://www.w3.org/2000/svg" xmlns:xlink="http://www.w3.org/1999/xlink">
    <!-- Generator: Sketch 46.2 (44496) - http://www.bohemiancoding.com/sketch -->
    <title>logo</title>
    <desc>Created with Sketch.</desc>
    <defs>
        <path d="M216.884989,72.1181172 L325.335527,154.424329 C350.141881,173.25058 350.136361,203.778153 325.335527,222.600215 L216.884989,304.906427 C192.078635,323.732678 151.854067,323.728488 127.053234,304.906427 L18.6026956,222.600215 C-6.20365869,203.773964 -6.19813822,173.24639 18.6026956,154.424329 L127.053234,72.1181172 C151.859588,53.2918662 192.084155,53.2960558 216.884989,72.1181172 Z" id="path-1"></path>
        <filter x="-11.6%" y="-7.7%" width="123.3%" height="130.6%" filterUnits="objectBoundingBox" id="filter-2">
            <feOffset dx="0" dy="20" in="SourceAlpha" result="shadowOffsetOuter1"></feOffset>
            <feGaussianBlur stdDeviation="10" in="shadowOffsetOuter1" result="shadowBlurOuter1"></feGaussianBlur>
            <feColorMatrix values="0 0 0 0 0   0 0 0 0 0   0 0 0 0 0  0 0 0 0.15 0" type="matrix" in="shadowBlurOuter1"></feColorMatrix>
        </filter>
        <path d="M216.884989,14.1181172 L325.335527,96.424329 C350.141881,115.25058 350.136361,145.778153 325.335527,164.600215 L216.884989,246.906427 C192.078635,265.732678 151.854067,265.728488 127.053234,246.906427 L18.6026956,164.600215 C-6.20365869,145.773964 -6.19813822,115.24639 18.6026956,96.424329 L127.053234,14.1181172 C151.859588,-4.70813383 192.084155,-4.70394418 216.884989,14.1181172 Z" id="path-3"></path>
        <filter x="-11.6%" y="-7.7%" width="123.3%" height="130.6%" filterUnits="objectBoundingBox" id="filter-4">
            <feOffset dx="0" dy="20" in="SourceAlpha" result="shadowOffsetOuter1"></feOffset>
            <feGaussianBlur stdDeviation="10" in="shadowOffsetOuter1" result="shadowBlurOuter1"></feGaussianBlur>
            <feColorMatrix values="0 0 0 0 0   0 0 0 0 0   0 0 0 0 0  0 0 0 0.151466259 0" type="matrix" in="shadowBlurOuter1"></feColorMatrix>
        </filter>
    </defs>
    <g id="logo" stroke="none" stroke-width="1" fill="none" fill-rule="evenodd">
        <g>
            <g transform="translate(20.000000, 0.000000)">
                <path d="M216.884989,133.118117 L325.335527,215.424329 C350.141881,234.25058 350.136361,264.778153 325.335527,283.600215 L216.884989,365.906427 C192.078635,384.732678 151.854067,384.728488 127.053234,365.906427 L18.6026956,283.600215 C-6.20365869,264.773964 -6.19813822,234.24639 18.6026956,215.424329 L127.053234,133.118117 C151.859588,114.291866 192.084155,114.296056 216.884989,133.118117 Z" id="Rectangle-1-Copy-2" fill="#4D18B6"></path>
                <g id="Rectangle-1-Copy">
                    <use fill="black" fill-opacity="1" filter="url(#filter-2)" xlink:href="#path-1"></use>
                    <use fill="#5E2AC8" fill-rule="evenodd" xlink:href="#path-1"></use>
                </g>
                <g id="Rectangle-1">
                    <use fill="black" fill-opacity="1" filter="url(#filter-4)" xlink:href="#path-3"></use>
                    <use fill="#7A39E7" fill-rule="evenodd" xlink:href="#path-3"></use>
                </g>
                <g id="flask" transform="translate(128.000000, 59.000000)" fill-rule="nonzero" fill="#FFFFFF">
                    <path d="M85.7242706,93.3780469 C85.6889288,93.3121875 85.6514833,93.2479687 85.6123548,93.1849219 L72.8663673,72.68625 C72.834181,72.6311719 72.8007325,72.5772656 72.765601,72.5240625 L59.7772695,51.635625 L59.7772695,20.4914062 C63.4505054,19.0403906 66.0883099,15.1305469 66.0883099,10.546875 C66.0883099,4.73132812 61.8416108,0 56.6217493,0 L31.3775878,0 C26.1577263,0 21.9110272,4.73132812 21.9110272,10.546875 C21.9110272,15.1303125 24.5488317,19.0403906 28.2220676,20.4914062 L28.2220676,51.635625 L2.38698231,93.1846875 C2.3476435,93.2477344 2.31040836,93.3121875 2.27506653,93.3778125 C-4.03639459,105.097734 3.52928062,120 15.8044645,120 L72.1948726,120 C84.4620625,120 92.0399391,105.105469 85.7242706,93.3780469 Z M33.0302389,56.25 L37.6886282,56.25 C39.4313168,56.25 40.8441484,54.6759375 40.8441484,52.734375 C40.8441484,50.7928125 39.4313168,49.21875 37.6886282,49.21875 L34.533108,49.21875 L34.533108,42.1875 L37.6886282,42.1875 C39.4313168,42.1875 40.8441484,40.6134375 40.8441484,38.671875 C40.8441484,36.7303125 39.4313168,35.15625 37.6886282,35.15625 L34.533108,35.15625 L34.533108,28.125 L37.6886282,28.125 C39.4313168,28.125 40.8441484,26.5509375 40.8441484,24.609375 C40.8441484,22.6678125 39.4313168,21.09375 37.6886282,21.09375 L34.533108,21.09375 L34.533108,17.578125 C34.533108,15.6365625 33.1202764,14.0625 31.3775878,14.0625 C29.637634,14.0625 28.2220676,12.4853906 28.2220676,10.546875 C28.2220676,8.60835937 29.637634,7.03125 31.3775878,7.03125 L56.6217493,7.03125 C58.3617032,7.03125 59.7772695,8.60835937 59.7772695,10.546875 C59.7772695,12.4853906 58.3617032,14.0625 56.6217493,14.0625 C54.8790607,14.0625 53.4662292,15.6365625 53.4662292,17.578125 L53.4662292,52.734375 C53.4662292,53.4496875 53.6622921,54.1483594 54.0279117,54.7364063 L61.3514534,66.5146875 C56.576941,65.3191406 51.4938187,65.9573438 47.0500048,68.4328125 L39.4380486,72.673125 C34.605685,75.3649219 28.8119395,74.9629688 24.3170062,71.6242969 C24.1240987,71.4808594 23.9280357,71.3423438 23.7309209,71.2059375 L33.0302389,56.25 Z M72.1946622,112.96875 L15.8044645,112.96875 C8.47250819,112.96875 3.93949825,104.1075 7.63776791,97.0875 L20.1308931,76.9954688 C20.362929,77.1485156 20.5920198,77.3076563 20.8162721,77.4742969 C27.1664409,82.1908594 35.3817326,82.7936719 42.2605562,78.961875 L49.8725124,74.7215625 C54.0988058,72.3672656 59.1451137,72.3672656 63.371407,74.7215625 L68.0889097,77.349375 L80.36199,97.0875 C84.058156,104.104687 79.5297741,112.96875 72.1946622,112.96875 Z" id="Shape"></path>
                    <ellipse id="Oval" cx="57" cy="88.5" rx="3" ry="3.5"></ellipse>
                    <ellipse id="Oval" cx="44" cy="102.5" rx="3" ry="3.5"></ellipse>
                    <ellipse id="Oval" cx="31" cy="95.5" rx="3" ry="3.5"></ellipse>
                </g>
            </g>
        </g>
    </g>
</svg>